<svg xmlns="http://www.w3.org/2000/svg" width="93" height="90" fill="none" xmlns:v="https://vecta.io/nano"><circle cx="35" cy="55" r="35" fill="#0098a6" fill-opacity=".1"/><path d="M36.128 26.46h-4.992L22 44.067v6.43a.95.95 0 0 0 .956.949h10.94v-7.38l1.806-6.43M48.662 68h40.47V51.447M24.55 55.454V68h10.622" stroke="#d6343d" stroke-width="2" stroke-miterlimit="10" stroke-linecap="round" stroke-linejoin="round"/><path d="M57.265 25.617c0-.527-.106-.843-.425-1.16s-.744-.633-1.38-.844c-1.38-.527-2.337-1.054-2.974-1.58-.637-.633-.956-1.476-.956-2.53 0-.95.32-1.792.956-2.425s1.487-1.054 2.55-1.16V14.02h1.38v1.898c1.062.106 1.912.633 2.443 1.265.637.738.85 1.687.85 2.847h-2.55c0-.738-.106-1.265-.425-1.58-.32-.422-.637-.527-1.168-.527s-.85.105-1.168.422c-.212.316-.425.633-.425 1.16 0 .422.106.843.425 1.16s.744.527 1.487.843c1.275.527 2.337 1.054 2.974 1.687s.956 1.37.956 2.425-.32 1.898-.956 2.53-1.487.95-2.656 1.054v1.792H54.93V29.2a4.71 4.71 0 0 1-2.762-1.16c-.743-.633-1.062-1.687-1.062-2.952h2.55c0 .843.213 1.37.53 1.687s.85.527 1.38.527.956-.105 1.275-.422.425-.738.425-1.265zm9.773-15.393c.637.422.744 1.265.32 1.898s-1.275.738-1.912.316-.744-1.265-.32-1.898c.53-.633 1.38-.738 1.912-.316z" fill="#d6343d"/><g stroke="#d6343d" stroke-width="2" stroke-miterlimit="10" stroke-linejoin="round"><path d="M35.17 68v-9.9h13.5V68"/><path d="M69.056 14.757c1.062 2.1 1.593 4.428 1.593 6.853 0 8.435-6.904 15.288-15.402 15.288M44.413 10.75c2.762-2.74 6.692-4.428 10.94-4.428 2.55 0 4.992.633 7.117 1.792" stroke-linecap="round"/><path d="M57.053 51.447H68.95v-5.904m-35.053 5.904h23.05v-7.38l-.212-2.1"/><path d="M92 44.067v7.38H68.95v-7.38l-2.23-6.326c-3.187 2.214-7.01 3.48-11.26 3.48-10.94 0-19.757-8.75-19.757-19.6 0-4.955 1.806-9.49 4.886-12.863C44.2 4.636 49.51 2 55.46 2c10.94 0 19.757 8.75 19.757 19.6 0 1.476-.212 2.847-.425 4.217h8.073L92 44.067z"/></g></svg>