<svg xmlns="http://www.w3.org/2000/svg" xmlns:xlink="http://www.w3.org/1999/xlink" width="91" height="90" fill="none" xmlns:v="https://vecta.io/nano"><style><![CDATA[.B{stroke-miterlimit:10}.C{stroke-width:2}.D{stroke-linecap:round}.E{stroke-linejoin:round}]]></style><circle cx="35" cy="55" r="35" fill="#0098a6" fill-opacity=".1"/><path d="M80.333 49.875H87a2.98 2.98 0 0 0 3-2.986V3.986A2.98 2.98 0 0 0 87 1H23a2.98 2.98 0 0 0-3 2.986V46.78a2.98 2.98 0 0 0 3 2.986h14.556m-6.223-5.973h9.556l6.444 19.35h22.222l6.222-13.27h-4.333" stroke="#d6343d" class="B C D E"/><g fill="#d6343d"><use xlink:href="#B"/><path d="M51.667 67.567h0c.11.11.11.22 0 .22s-.11-.11 0-.22c-.11 0-.11 0 0 0zm0-2.212a2.27 2.27 0 0 0-2.333 2.322A2.27 2.27 0 0 0 51.667 70 2.27 2.27 0 0 0 54 67.678c0-1.327-1.11-2.322-2.333-2.322z"/><use xlink:href="#B" x="14.889"/><path d="M66.556 67.567h0c.11.11.11.22 0 .22 0-.11-.11-.11 0-.22-.11 0 0 0 0 0zm0-2.212a2.27 2.27 0 0 0-2.333 2.322A2.27 2.27 0 0 0 66.556 70a2.27 2.27 0 0 0 2.333-2.322 2.27 2.27 0 0 0-2.333-2.322z"/></g><g stroke="#d6343d" class="B"><g class="C"><path d="M20.222 15.486H89.89" class="D"/><path d="M57.556 55.736c5.093 0 9.222-4.11 9.222-9.178s-4.13-9.178-9.222-9.178-9.222 4.11-9.222 9.178 4.13 9.178 9.222 9.178z"/></g><g class="D"><g class="E"><path d="M61.333 34.284v-5.53h-1.9L62 24l2.556 4.534M52.444 33.4V26h-2.778l3.556-6.303 3.556 6.192h-1.556" stroke-width="1.75"/><path d="M27.222 43.793h-1.11" class="C"/></g><path d="M57.555 43.462v6.082" class="C"/><path d="M54.333 46.226h6.333" class="C"/></g></g><defs ><path id="B" d="M51.667 68.784a1.23 1.23 0 0 1-1.222-1.216 1.23 1.23 0 0 1 1.222-1.216 1.23 1.23 0 0 1 1.222 1.216 1.23 1.23 0 0 1-1.222 1.216z"/></defs></svg>