<svg xmlns="http://www.w3.org/2000/svg" width="90" height="90" fill="none" xmlns:v="https://vecta.io/nano"><style><![CDATA[.B{stroke-linecap:round}.C{stroke:#d6343d}.D{stroke-width:2}.E{stroke-miterlimit:10}.F{stroke-linejoin:round}]]></style><circle cx="35" cy="55" r="35" fill="#0098a6" fill-opacity=".1"/><g class="C D E"><path d="M84.33 31.97l-2.995-5.35-2.892 5.557h2.272s1.136 6.895-2.272 14.1" class="B F"/><path d="M54.344 14.12c.956-5.89-3.06-11.44-8.974-12.393s-11.48 3.05-12.438 8.942 3.06 11.44 8.974 12.393 11.48-3.05 12.438-8.942z"/></g><path d="M70.386 59.14H68.94c-.103 0-.3-.103-.3-.31v-8.027c0-.103.103-.206.207-.31a21.9 21.9 0 0 1 3.098-.206c1.653 0 2.376.31 2.995.617.516.412.826 1.03.826 1.852 0 .926-.723 1.647-1.756 1.955v.103c.826.31 1.343.926 1.55 2.058.3 1.338.413 1.852.62 2.16h-1.962c-.103 0-.3-.103-.3-.206-.207-.412-.3-1.03-.516-1.852-.103-.926-.723-1.338-1.756-1.338h-1.033v3.2c0 .103-.103.31-.207.31zm.3-4.837h.93c1.136 0 1.962-.412 1.962-1.235s-.62-1.338-1.86-1.338c-.516 0-.93.103-1.136.103v2.47h.103z" fill="#d6343d"/><g class="C D E"><path d="M75.97 64.926c5.54-2.27 8.184-8.583 5.907-14.103s-8.614-8.155-14.153-5.886-8.184 8.583-5.907 14.103 8.614 8.155 14.154 5.886z"/><path d="M38.06 55.333l6.92 11.115c.723 1.132.3 2.573-.723 3.2-1.136.72-2.582.31-3.202-.72L37.13 62.64" class="B"/><path d="M58.096 47.717c-7.023.412-12.187 2.47-14.976 3.808-1.343.617-2.582 1.44-3.718 2.367L35.9 56.567c-3.202 2.47-7.746 1.955-10.328-1.235-2.48-3.2-1.962-7.718 1.24-10.29l6.6-5.043s7.127-5.35 10.432-12.864"/><path d="M56.237 41.542c1.756 3.2 2.48 5.66 1.756 6.175-1.136.823-5.164-3.2-9.1-8.85s-6.197-10.806-5.06-11.63c.723-.515 2.48.823 4.648 3.2M38.06 54.92c-2.48-2.78-5.474-8.542-6.92-13.07m30.674 17.908c-2.066.515-4.235.823-6.404.823-3.925 0-7.54-.926-10.845-2.47m-9.088-38.18c-2.8 3.5-4.545 7.72-5.164 12.35 0 0-.207 2.16 0 3.087" class="B"/></g><path d="M43.843 12.11v4.94h-2.066v-4.94h-1.55c-.103 0-.207-.103-.207-.206V10.36c0-.103.103-.206.207-.206h1.55V8.507a2.29 2.29 0 0 1 2.272-2.264h1.446c.103 0 .207.103.207.206v1.338c0 .103-.103.206-.207.206h-1.033c-.413 0-.723.31-.723.72v1.44h1.756c.103 0 .207.103.103.206l-.207 1.647c0 .103-.103.206-.206.206l-1.343-.103z" fill="#d6343d"/><path d="M68.424 21.063c1.136 1.03 2.17 2.058 2.995 3.293 2.17 3.087 3.512 6.895 3.512 11.012 0 3.2-.723 6.175-2.17 8.748M54.584 16.432h1.24c3.202 0 6.197.823 8.882 2.16M54.584 9.948c8.882 0 16.938 3.9 21.586 10.085" class="B C D E F"/></svg>