<svg xmlns="http://www.w3.org/2000/svg" width="90" height="91" fill="none" xmlns:v="https://vecta.io/nano"><circle cx="35" cy="56" r="35" fill="#0098a6" fill-opacity=".1"/><g stroke="#d6343d" stroke-width="2" stroke-miterlimit="10"><path d="M36.788 56.204l8.484 13.44c.828 1.344 2.587 1.758 3.828.93 1.345-.827 1.76-2.584.93-3.825l-4.552-7.857h6.415V47.107" stroke-linejoin="round"/><path d="M65.55 44.316c-2.793.207-5.276.517-7.553 1.034-4.552 1.034-7.966 2.378-10.242 3.515-1.552.724-3.104 1.654-4.45 2.79l-4.138 3.308c-3.828 2.998-9.31 2.274-12.312-1.55S24.58 44.11 28.407 41.11l7.863-6.1s8.484-6.4 12.415-15.404"/><g stroke-linecap="round"><path d="M63.48 36.873c2.07 3.928 2.897 6.823 2.07 7.443-.517.3-1.448-.103-2.793-1.137-.517-.413-1.138-1.034-1.862-1.654l-1.966-2.068-1.655-2.068-2.7-3.618c-4.656-6.72-7.346-13.026-6-13.956.828-.517 2.897.93 5.483 3.722m-12.2 29.36c-2.897-3.4-6.518-10.235-8.277-15.714"/><path d="M68.55 17.23l-9.3-9.304m7.86 40.318c.724 5.48.414 10.234.414 10.234h12.622V28.8l-5.794-5.8m5.796-12.302v10.648M85 26.638L59.342 1 33.787 26.638" stroke-linejoin="round"/></g></g></svg>