<svg xmlns="http://www.w3.org/2000/svg" width="90" height="90" fill="none" xmlns:v="https://vecta.io/nano"><circle cx="35" cy="55" r="35" fill="#0098a6" fill-opacity=".1"/><g fill="#d6343d"><path d="M59.2 13.5a.4.4 0 1 0 0-.8.4.4 0 1 0 0 .8z"/><path d="M59.2 11.7c-.8 0-1.4.6-1.4 1.4s.6 1.4 1.4 1.4 1.4-.6 1.4-1.4-.6-1.4-1.4-1.4z"/></g><g stroke="#d6343d" stroke-width="2" stroke-miterlimit="10"><path d="M59.7 40.4l8.1 8.1 2.8-2.7 15.1 15.1c1.8 1.8 1.8 4.7 0 6.5s-4.7 1.8-6.5 0L64 52.3m-11.7-16l-.1-6.4c0-1.9-1.7-3.5-3.8-3.5h-8.2c-2.1 0-3.8 1.6-3.8 3.5v6.3" stroke-linecap="round" stroke-linejoin="round"/><path d="M48.4 19.5c0 2.2-1.8 4.1-4.1 4.1-2.2 0-4.1-1.8-4.1-4.1s1.8-4.1 4.1-4.1 4.1 1.8 4.1 4.1z" stroke-linejoin="round"/><g stroke-linecap="round"><path d="M66.6 39c2-3.6 3.2-7.6 3.2-12 0-13.7-11-24.9-24.8-25-13.7-.1-24.9 11-25 24.7s11 24.9 24.7 25c5.6 0 10.9-1.8 15.1-5 0 0 1.8-1.4 3.2-2.8M62.3 17c1.8 3.1 2.7 6.7 2.6 10.6-.2 5-2.1 9.4-5.2 12.8"/><path d="M30.9 12.5c3.8-3.7 9-5.9 14.7-5.7 3.5.2 6.7 1.2 9.5 2.9"/></g></g></svg>