<svg width="16" height="16" viewBox="0 0 16 16" fill="none" xmlns="http://www.w3.org/2000/svg">
<circle cx="8" cy="8" r="8" fill="white"/>
<path d="M11.7681 11.0147C11.6326 10.8691 11.4921 10.7309 11.3541 10.5977C11.2851 10.5311 11.2161 10.462 11.1471 10.3929L10.5458 9.79091C10.2895 9.53432 9.98886 9.39862 9.68082 9.39862C9.37031 9.39862 9.07213 9.53432 8.81583 9.79091C8.75423 9.85259 8.69015 9.91428 8.62854 9.97596C8.48561 10.1166 8.33775 10.2622 8.19482 10.4151C7.94099 10.2918 7.68223 10.1215 7.38158 9.88467C6.98975 9.56392 6.6546 9.24318 6.35642 8.90269C6.19623 8.71765 5.9153 8.69791 5.73047 8.86075C5.54565 9.02112 5.52593 9.30239 5.68858 9.48744C6.0188 9.8674 6.39092 10.2252 6.82464 10.578C6.82711 10.578 6.82711 10.5804 6.82957 10.5804C7.26576 10.9259 7.63295 11.1528 8.02478 11.3132C8.03464 11.3182 8.04449 11.3206 8.05435 11.3231C8.148 11.3552 8.42893 11.4489 8.70494 11.1751C8.70987 11.1701 8.71726 11.1627 8.72219 11.1578C8.88977 10.9678 9.0672 10.7951 9.25449 10.61C9.31856 10.5484 9.38263 10.4842 9.44671 10.4201C9.50585 10.3609 9.59703 10.2868 9.68575 10.2868C9.77447 10.2868 9.86318 10.3584 9.92479 10.4201L10.5261 11.0221C10.5976 11.0936 10.6715 11.1652 10.7405 11.2343C10.8785 11.3675 11.0066 11.4958 11.1299 11.6266C11.1323 11.6315 11.1372 11.634 11.1397 11.6364C11.2334 11.7302 11.3344 11.8782 11.1348 12.0904L10.3832 12.8429C10.223 13.0033 10.0455 13.0872 9.82129 13.1069C9.43931 13.139 9.0327 13.065 8.50286 12.8676C7.62063 12.5419 6.79753 12.046 5.9079 11.3058C4.83345 10.4053 3.98818 9.3246 3.39181 8.09343C3.17987 7.64685 2.93097 7.05471 2.88908 6.42555C2.8669 6.0752 2.96054 5.82354 3.18726 5.61135C3.35238 5.47318 3.49777 5.32268 3.63578 5.17958C3.72449 5.08582 3.80828 4.99947 3.897 4.91805L3.89946 4.91558C4.07443 4.74781 4.21983 4.74534 4.38247 4.90818L5.5974 6.12454C5.59986 6.12701 5.60233 6.12948 5.60479 6.13195C5.65654 6.18129 5.71815 6.25778 5.72061 6.34166C5.72061 6.43049 5.65408 6.51684 5.59986 6.57359L4.84577 7.32857C4.67327 7.50128 4.67327 7.78255 4.84577 7.95773C5.01827 8.13044 5.29921 8.13044 5.47418 7.95773L6.22827 7.20274C6.4821 6.94861 6.61271 6.65007 6.61024 6.33426C6.60778 6.02585 6.4747 5.73471 6.22581 5.49539L5.01335 4.28149C4.50569 3.77323 3.81567 3.77077 3.29077 4.27409C3.18726 4.37031 3.09362 4.469 2.99997 4.56523C2.86936 4.70093 2.74615 4.82923 2.61307 4.94025C2.60814 4.94519 2.60321 4.95012 2.59582 4.95506C2.16456 5.34735 1.96741 5.86055 2.00438 6.4823C2.05613 7.26196 2.34446 7.95773 2.59089 8.47586V8.47832C3.24394 9.82545 4.16561 11.0048 5.33618 11.9868C6.30466 12.7911 7.21154 13.3364 8.18989 13.6991C8.54969 13.8323 9.07459 14.0001 9.65618 14.0001C9.73257 14.0001 9.81143 13.9976 9.89029 13.9902H9.89276C10.324 13.9532 10.6986 13.778 11.0066 13.4696L11.7607 12.7146C11.7632 12.7122 11.7657 12.7097 11.7681 12.7072C12.2536 12.2014 12.2511 11.5057 11.7681 11.0147Z" fill="#FF0101"/>
<path d="M11.5931 7.99737C11.4403 7.09928 11.0164 6.28015 10.3683 5.62879C9.72509 4.98236 8.90693 4.55799 8.00744 4.40502C7.76594 4.36308 7.53675 4.52592 7.49486 4.76771C7.45296 5.0095 7.61561 5.23896 7.85712 5.2809C8.57178 5.4018 9.22483 5.74228 9.74234 6.26041C10.2599 6.77854 10.5999 7.43237 10.7207 8.14788C10.7577 8.365 10.9449 8.51797 11.1569 8.51797C11.1815 8.51797 11.2062 8.5155 11.2308 8.51057C11.4723 8.46862 11.635 8.23917 11.5931 7.99737Z" fill="#FF0101"/>
<path d="M13.9938 7.88856C13.7449 6.41807 13.0499 5.07834 11.9878 4.01495C10.9257 2.95155 9.58752 2.25578 8.11877 2.00659C7.87727 1.96464 7.64808 2.12748 7.60619 2.36927C7.56429 2.61107 7.72694 2.84052 7.96845 2.88247C9.25484 3.10205 10.4279 3.709 11.3594 4.64163C12.2909 5.57426 12.8996 6.74868 13.1165 8.0366C13.1534 8.25372 13.3407 8.40669 13.5527 8.40669C13.5773 8.40669 13.6019 8.40423 13.6266 8.39929C13.873 8.35981 14.0357 8.13036 13.9938 7.88856Z" fill="#FF0101"/>
</svg>
