<svg xmlns="http://www.w3.org/2000/svg" width="20" height="20" fill="#2f353d" xmlns:v="https://vecta.io/nano"><path d="M8.808 0A8.82 8.82 0 0 0 0 8.808a8.82 8.82 0 0 0 8.808 8.808 8.82 8.82 0 0 0 8.808-8.808A8.82 8.82 0 0 0 8.808 0zm0 15.99a7.19 7.19 0 0 1-7.182-7.182 7.19 7.19 0 0 1 7.182-7.182 7.19 7.19 0 0 1 7.182 7.182 7.19 7.19 0 0 1-7.182 7.182z"/><path d="M19.762 18.612l-4.66-4.66c-.318-.318-.832-.318-1.15 0s-.318.832 0 1.15l4.66 4.66a.81.81 0 0 0 1.15 0c.318-.317.318-.832 0-1.15z"/></svg>