<svg xmlns="http://www.w3.org/2000/svg" width="10" height="10" fill="#0098a6" xmlns:v="https://vecta.io/nano"><path d="M5.837 4.6L1.292.16A.56.56 0 0 0 .897 0a.56.56 0 0 0-.395.16L.167.487a.54.54 0 0 0 0 .774l3.816 3.737-3.82 3.74a.54.54 0 0 0 0 .774l.335.328a.56.56 0 0 0 .395.16.56.56 0 0 0 .395-.16l4.55-4.454A.54.54 0 0 0 6 4.998a.54.54 0 0 0-.163-.388zm4 0L5.292.16A.56.56 0 0 0 4.897 0a.56.56 0 0 0-.395.16l-.335.328a.54.54 0 0 0 0 .774L7.983 5l-3.82 3.74a.54.54 0 0 0 0 .774l.335.328a.56.56 0 0 0 .395.16.56.56 0 0 0 .395-.16l4.55-4.454A.54.54 0 0 0 10 4.998a.54.54 0 0 0-.163-.388z"/></svg>