<svg width="20" height="20" viewBox="0 0 20 20" fill="none" xmlns="http://www.w3.org/2000/svg">
<path d="M10.3902 12.8371L14.8402 8.29221C14.9433 8.1871 15 8.04677 15 7.89715C15 7.74753 14.9433 7.60721 14.8402 7.50209L14.5126 7.16739C14.2991 6.9496 13.9521 6.9496 13.739 7.16739L10.0021 10.9838L6.26105 7.16316C6.15804 7.05804 6.02072 7 5.8743 7C5.72772 7 5.5904 7.05804 5.48731 7.16316L5.15975 7.49785C5.05675 7.60306 5 7.7433 5 7.89292C5 8.04254 5.05675 8.18286 5.15975 8.28798L9.61386 12.8371C9.7172 12.9425 9.85516 13.0003 10.0018 13C10.1491 13.0003 10.2869 12.9425 10.3902 12.8371Z" fill="#393738"/>
</svg>
