<svg xmlns="http://www.w3.org/2000/svg" width="56" height="56" fill="none"><path d="M14.8 48.13l.915.454c3.815 2.27 8.087 3.33 12.36 3.33 13.428 0 24.414-10.897 24.414-24.216 0-6.357-2.594-12.562-7.172-17.103S34.638 3.48 28.076 3.48C14.65 3.48 3.662 14.378 3.815 27.85c0 4.54 1.373 8.93 3.662 12.714l.6.908-2.44 8.93 9.155-2.27z" fill="#00e676"/><path d="M47.913 8.173C42.725 2.876 35.553 0 28.23 0 12.665 0 .153 12.562.305 27.85c0 4.843 1.373 9.535 3.662 13.773L0 56l14.8-3.784c4.12 2.27 8.698 3.33 13.275 3.33C43.488 55.546 56 42.984 56 27.697c0-7.416-2.9-14.378-8.087-19.524zM28.23 50.854c-4.12 0-8.24-1.06-11.75-3.178l-.916-.454-8.85 2.27 2.29-8.627-.6-.908C1.678 29.21 4.883 14.984 15.87 8.324s25.177-3.48 31.89 7.416 3.5 24.973-7.477 31.632c-3.5 2.27-7.782 3.48-12.054 3.48zm13.428-16.8l-1.678-.757s-2.44-1.06-3.967-1.816c-.153 0-.305-.15-.458-.15-.458 0-.763.15-1.068.303 0 0-.153.15-2.29 2.573a.84.84 0 0 1-.763.454h-.152c-.153 0-.458-.15-.6-.303l-.763-.303c-1.678-.757-3.204-1.665-4.425-2.876-.305-.303-.763-.605-1.068-.908-1.068-1.06-2.136-2.27-2.9-3.633l-.153-.303c-.153-.15-.153-.303-.305-.605 0-.303 0-.605.153-.757 0 0 .6-.757 1.068-1.21.305-.303.458-.757.763-1.06.305-.454.458-1.06.305-1.514-.152-.757-1.984-4.843-2.44-5.75-.305-.454-.6-.605-1.068-.757h-1.678c-.305 0-.6.15-.916.15l-.153.15c-.305.15-.6.454-.916.605-.305.303-.458.605-.763.908-1.068 1.362-1.678 3.027-1.678 4.692 0 1.21.305 2.422.763 3.48l.153.454c1.373 2.876 3.204 5.45 5.646 7.72l.6.605c.458.454.916.757 1.22 1.21 3.204 2.724 6.867 4.692 10.986 5.75.458.15 1.068.15 1.526.303h1.526c.763 0 1.678-.303 2.29-.605.458-.303.763-.303 1.068-.605l.305-.303c.305-.303.6-.454.916-.757s.6-.605.763-.908c.305-.605.458-1.362.6-2.12v-1.06s-.153-.15-.458-.303z" fill="#fff"/></svg>