<svg xmlns="http://www.w3.org/2000/svg" width="118" height="46" fill="none" xmlns:v="https://vecta.io/nano"><path d="M69.145 31.63V4.58h4.767v27.05h-4.767zM37.22 17.597L23.353 31.484 9.534 17.597 23.353 3.66 37.22 17.597z" fill="#070606"/><path d="M41.073 31.678V3.952h11.46c2.3 0 4.14.3 5.586.823 1.444.58 2.552 1.452 3.322 2.613.82 1.16 1.204 2.37 1.204 3.63 0 1.16-.337 2.274-1.06 3.3-.722 1.065-1.782 1.887-3.226 2.564 1.83.484 3.274 1.306 4.237 2.516 1 1.16 1.493 2.565 1.493 4.2 0 1.306-.3 2.516-.915 3.63-.578 1.113-1.348 1.935-2.215 2.565s-2.022 1.064-3.37 1.355c-1.348.34-2.985.484-4.96.484H41.073v.048zm4.045-16.064h6.597c1.83 0 3.13-.097 3.852-.34 1-.242 1.782-.726 2.3-1.355.24-.3.433-.677.578-1.064l.144-.63c.048-.242.048-.484.048-.726 0-.92-.24-1.742-.722-2.42s-1.156-1.16-2.07-1.452-2.456-.387-4.67-.387h-6.067v8.37zm0 12.823h7.608c1.348 0 2.263-.048 2.745-.145.915-.145 1.685-.387 2.3-.726s1.108-.87 1.54-1.548.626-1.5.626-2.37a4.26 4.26 0 0 0-.867-2.613c-.578-.774-1.396-1.306-2.456-1.645s-2.552-.532-4.478-.532h-7.03v9.58zm-17.43-10.84l-13.82 13.887L0 17.597 13.868 3.66l13.82 13.935z" fill="#fe0908"/><path d="M84.794 31.63h-4.478V8.16c0-2.613 1.3-3.968 3.9-3.968 1.733 0 3.178.92 4.334 2.7l12.808 20.274V4.532h4.527v23.564c0 2.613-1.252 3.92-3.756 3.92-1.83 0-3.323-.87-4.43-2.7L84.843 8.887V31.63h-.048zM112.96 0a4.91 4.91 0 0 1 3.578 1.463A4.91 4.91 0 0 1 118 5.041c0 1.382-.488 2.52-1.463 3.496A4.91 4.91 0 0 1 112.959 10c-1.382 0-2.52-.488-3.496-1.463S108 6.423 108 5.04c0-.976.244-1.95.894-2.764.57-.894 1.3-1.545 2.277-1.87C111.66.08 112.3 0 112.96 0zm4.4 5.04c0-1.22-.407-2.276-1.22-3.17-.813-.813-1.87-1.3-3.1-1.3s-2.195.407-3.1 1.3c-.813.894-1.3 1.87-1.3 3.1a4.25 4.25 0 0 0 1.3 3.09c.813.894 1.87 1.3 3.008 1.3 1.22 0 2.277-.406 3.1-1.22.894-.813 1.3-1.87 1.3-3.1zm-4.228-2.927c1.626 0 2.358.488 2.358 1.545 0 .894-.407 1.382-1.3 1.545l1.3 2.602h-1.22l-1.138-2.44h-1.057v2.44h-1.057v-5.7h2.114zm-.163.65h-.894v1.87h.894c.976 0 1.464-.325 1.464-.894 0-.65-.488-.976-1.464-.976zM41.65 45.855l1.35-9.34h.144l3.804 7.694 3.756-7.694h.144l1.348 9.34h-.915l-.963-6.726-3.274 6.677h-.24L43.48 39.08l-.915 6.726h-.915v.048zm24.462-2.323l.77.387c-.24.484-.53.87-.867 1.16s-.674.532-1.06.678a3.92 3.92 0 0 1-1.348.242c-1.108 0-2.022-.387-2.648-1.113s-.963-1.597-.963-2.516a3.69 3.69 0 0 1 .819-2.323c.674-.87 1.6-1.306 2.745-1.306s2.12.435 2.793 1.355c.48.63.77 1.403.77 2.37H60.9a2.83 2.83 0 0 0 .77 1.984c.48.532 1.107.774 1.83.774.337 0 .674-.048 1-.194a4.14 4.14 0 0 0 .867-.484c.193-.242.48-.58.722-1.016zm0-1.84a2.59 2.59 0 0 0-.53-1.16c-.24-.3-.53-.532-.915-.678-.385-.194-.77-.242-1.156-.242-.674 0-1.252.242-1.733.677-.337.34-.626.774-.82 1.452H66.1v-.048zm15.986-5.466v9.58h-.867v-1.2c-.385.435-.77.774-1.252 1.016s-.963.34-1.493.34c-.963 0-1.83-.34-2.504-1.065s-1-1.597-1-2.613a3.44 3.44 0 0 1 1.059-2.565c.674-.726 1.54-1.064 2.504-1.064.578 0 1.06.097 1.54.34s.867.63 1.204 1.113v-3.87h.82zm-3.515 3.387a2.58 2.58 0 0 0-1.348.387 2.56 2.56 0 0 0-1.011 1.016c-.24.435-.385.92-.385 1.403s.144.968.385 1.403a2.56 2.56 0 0 0 1.011 1.016c.433.242.867.387 1.348.387a2.89 2.89 0 0 0 1.396-.387 2.56 2.56 0 0 0 1.011-1.016c.24-.436.337-.87.337-1.403 0-.823-.24-1.452-.77-2.032-.578-.532-1.204-.774-1.974-.774zM90.9 36.08c.193 0 .385.097.53.194.144.145.193.34.193.532s-.048.387-.193.532-.337.194-.53.194-.385-.097-.53-.194c-.144-.145-.193-.34-.193-.532s.048-.387.193-.532.337-.194.53-.194zm-.433 2.855h.867v6.92h-.867v-6.92zm16.093 0v6.92h-.867v-1.2c-.385.435-.77.774-1.252 1.016a3.21 3.21 0 0 1-1.492.339c-.963 0-1.83-.34-2.504-1.065s-1-1.597-1-2.613a3.44 3.44 0 0 1 1.059-2.565c.674-.726 1.54-1.065 2.504-1.065.578 0 1.06.097 1.54.34s.866.63 1.203 1.113v-1.258h.82v.048zm-3.563.677c-.482 0-.963.145-1.348.387a2.56 2.56 0 0 0-1.012 1.016c-.24.435-.385.92-.385 1.403s.145.968.385 1.403a2.56 2.56 0 0 0 1.012 1.016c.433.242.866.387 1.348.387s.963-.145 1.396-.387a2.55 2.55 0 0 0 1.011-1.016c.24-.436.337-.87.337-1.403 0-.823-.24-1.452-.77-2.032-.578-.532-1.204-.774-1.974-.774z" fill="#070606"/></svg>